# xmcd
#
# Track frame offsets:
#	150
#	21352
#	41757
#	63643
#	83174
#	102968
#	118614
#	135222
#	155076
#	171012
#	184621
#	196805
#	207974
#	219721
#	230387
#	241997
#	255551
#	267571
#	278766
#	291544
#	302958
#
# Disc length: 4209 seconds
#
# Revision: 0
# Processed by: cddbd v1.5.2PL0 Copyright (c) Steve Scherf et al.
# Submitted via: EasyCDDAExtractor 16.0.6.1
#
DISCID=3a106f15
DTITLE=Raquel Castaños - Cariñosamente
DYEAR=1967
DGENRE=Ballad
TTITLE0=Abrázame
TTITLE1=Donde
TTITLE2=Divorciada
TTITLE3=Locura De Amar
TTITLE4=Márchate
TTITLE5=Pedazo De Tonto
TTITLE6=Sola Sin El
TTITLE7=En Navidad
TTITLE8=Cuentan Que Un Día
TTITLE9=Puñaito De Sal
TTITLE10=Soldadito Español
TTITLE11=La Chica Del 17
TTITLE12=Calderita
TTITLE13=El Sultán
TTITLE14=Alma Llanera
TTITLE15=El Gran Día De Caracas
TTITLE16=La Felicidad
TTITLE17=Amor En Primavera
TTITLE18=Criollísimo
TTITLE19=Luna De Maracay
TTITLE20=Pinocho
EXTD=
EXTT0=
EXTT1=
EXTT2=
EXTT3=
EXTT4=
EXTT5=
EXTT6=
EXTT7=
EXTT8=
EXTT9=
EXTT10=
EXTT11=
EXTT12=
EXTT13=
EXTT14=
EXTT15=
EXTT16=
EXTT17=
EXTT18=
EXTT19=
EXTT20=
PLAYORDER=
